<?xml version="1.0" encoding="utf-8"?>
<!-- Generator: Adobe Illustrator 25.2.3, SVG Export Plug-In . SVG Version: 6.00 Build 0)  -->
<svg version="1.1" id="Ebene_1" xmlns="http://www.w3.org/2000/svg" xmlns:xlink="http://www.w3.org/1999/xlink" x="0px" y="0px"
	 viewBox="0 0 1080 922.4" style="enable-background:new 0 0 1080 922.4;" xml:space="preserve">
<style type="text/css">
	.st0{fill:#333333;stroke:#333333;stroke-width:1.5;}
</style>
<path id="Pfad_667" class="st0" d="M380.6,313c47.8,21.7,102.6,21.8,150.4,0.3c7.6-3.8,10.7-13,6.9-20.6c-3.8-7.6-13-10.7-20.6-6.9
	c-39.6,17.2-84.6,16.9-124-0.7c-61.3-29.3-105.7-103-132-219c-0.9-4-0.1-8.3,2.2-11.7c2.3-3.4,5.8-5.6,9.9-6.2
	c54.3-8.2,236-28.9,295,47.5c24,31.1,25.6,76.5,4.8,135.3c-32.6-38.6-106.2-118.3-168.9-130.8c-8.3-1.7-16.4,3.7-18.1,12
	c-1.7,8.3,3.7,16.4,12,18.1c57.2,11.4,137.5,101.6,165.9,138.1c17.3,56.9,24.6,116.4,21.6,175.8c-0.7,8.5,5.6,15.9,14,16.6
	c0,0,0,0,0,0c0.4,0,0.9,0,1.3,0c8,0,14.6-6.1,15.3-14.1c1.8-22.9,1.7-45.9-0.3-68.7c0.4-1.1,0.7-2.3,0.9-3.4
	c5.9-30.9,20.6-59.4,42.1-82.2c41.3,30.1,79.5,45.4,114.1,45.4c12.3,0,24.5-2,36.1-6c66.8-23.1,96.5-106.5,108.2-154.2
	c5.8-23.9-7.9-48.1-31.3-55.6c-86.9-27.7-154.9-26.4-202,3.6c-29.6,18.8-49.9,49.1-56.1,83.6c-1,8.4,5,16.1,13.5,17
	c8.3,1,15.8-4.8,17-13c5-25.7,20.5-48.2,42.7-62c38.6-24.3,99.4-24.2,175.8,0c8,2.5,12.7,10.8,10.7,19
	c-8.2,33.5-33.3,113.5-88.4,132.5c-32.3,11.2-71.9,0.3-117.7-32c33.8-27.1,73.2-46.2,115.4-56.2c8.2-2.1,13.1-10.5,11-18.7
	c-2.1-8.2-10.5-13.1-18.7-11C681.4,212.8,630.6,269.5,606.8,313c-4.8-24.1-10-42.4-12.6-51.2c32.7-79,32.2-141.3-1.6-185
	C525.3-10.4,343.7,6.4,268.8,17.7c-24.8,3.8-41.8,26.9-38.1,51.7c0.2,1.1,0.4,2.2,0.6,3.3C259.9,198.8,310.1,279.7,380.6,313z
	 M1068.3,496.7c-5.9-20.6-22.3-36.4-43-41.6L1005,450c-14.1-3.5-29-1.8-41.9,4.9L724.5,577.8c-7.4,4.1-10.2,13.4-6.1,20.9
	c3.9,7.2,12.8,10,20.2,6.5l238.6-122.9c6.3-3.2,13.5-4.1,20.4-2.4l20.3,5.1c15.6,3.9,25.1,19.7,21.2,35.3c-1.6,6.4-5.3,12-10.5,16
	l-269,206.9c-2.9,2.2-6.1,3.9-9.6,4.9l-277.7,80.8c-2.7,0.8-5.4,1.2-8.2,1.2H247.6V637.5h7.6c18.5,0,36.4-6.4,50.7-18.2l94.5-77.8
	c9-7.4,20.3-11.5,32-11.5h185.1c8.7,0,16.8,4.2,21.8,11.2l14,19.7c3.7,5.2,4,12,0.9,17.5l-1.4,2.5c-9.2,16.1-26.3,26-44.8,26H431.9
	c-8.5,0-15.3,6.9-15.3,15.4c0,8.4,6.9,15.3,15.3,15.3h176.2c29.5,0,56.8-15.9,71.5-41.5l1.4-2.5c9.1-15.9,8.1-35.6-2.6-50.6
	l-14-19.7c-10.8-15.1-28.2-24.1-46.8-24.1H432.4c-18.8,0-37,6.6-51.6,18.5l-94.5,77.8c-8.8,7.2-19.8,11.2-31.2,11.2h-7.6
	c-0.1-42.4-34.6-76.8-77-76.8H24.8c-8.5,0-15.4,6.8-15.4,15.3c0,8.5,6.8,15.4,15.3,15.4c0,0,0.1,0,0.1,0h145.8
	c25.5,0,46.2,20.7,46.3,46.3V837c0,25.5-20.7,46.2-46.3,46.3H24.8c-8.5,0-15.3,6.9-15.3,15.4c0,8.4,6.9,15.3,15.3,15.3h145.8
	c33.4-0.1,62.9-21.5,73.2-53.3H464c5.7,0,11.3-0.8,16.7-2.4l277.7-80.8c7.2-2.1,13.9-5.5,19.8-10l269-206.9
	C1066.7,545.7,1075.1,520.3,1068.3,496.7L1068.3,496.7z"/>
</svg>
