<?xml version="1.0" encoding="utf-8"?>
<!-- Generator: Adobe Illustrator 25.2.3, SVG Export Plug-In . SVG Version: 6.00 Build 0)  -->
<svg version="1.1" id="Ebene_1" xmlns="http://www.w3.org/2000/svg" xmlns:xlink="http://www.w3.org/1999/xlink" x="0px" y="0px"
	 viewBox="0 0 1031.9 674" style="enable-background:new 0 0 1031.9 674;" xml:space="preserve">
<style type="text/css">
	.st0{fill:#333333;}
	.st1{fill:#333333;stroke:#333333;stroke-width:1.5;}
</style>
<g id="Gruppe_3987" transform="translate(0 -80.5)">
	<g id="Gruppe_3962" transform="translate(15.935 134.281)">
		<g id="Gruppe_3961">
			<path id="Pfad_623" class="st0" d="M228.1,411.1c-56.3,0-102,45.7-102,102s45.7,102,102,102s102-45.7,102-102l0,0
				C330,456.8,284.4,411.2,228.1,411.1z M228.1,581.1c-37.6,0-68-30.4-68-68s30.4-68,68-68s68,30.4,68,68
				C296,550.6,265.6,581.1,228.1,581.1L228.1,581.1z"/>
		</g>
	</g>
	<g id="Gruppe_3964" transform="translate(83.658 134.281)">
		<g id="Gruppe_3963">
			<path id="Pfad_624" class="st0" d="M738.3,411.1c-56.3,0-102,45.6-102,102c0,56.3,45.6,102,102,102c56.3,0,102-45.6,102-102l0,0
				C840.2,456.8,794.6,411.2,738.3,411.1z M738.3,581.1c-37.6,0-68-30.4-68-68s30.4-68,68-68s68,30.4,68,68
				C806.3,550.6,775.8,581.1,738.3,581.1L738.3,581.1z"/>
		</g>
	</g>
	<g id="Gruppe_3966" transform="translate(75.691 94.443)">
		<g id="Gruppe_3965" transform="translate(0 0)">
			<path id="Pfad_625" class="st0" d="M947.6,356.7l-153-238c-3.1-4.9-8.5-7.8-14.3-7.8h-187c-9.4,0-17,7.6-17,17l0,0v425
				c0,9.4,7.6,17,17,17l0,0h68v-34h-51v-391H771l145.3,226v165h-85v34h102c9.4,0,17-7.6,17-17l0,0V366
				C950.3,362.7,949.4,359.5,947.6,356.7z"/>
		</g>
	</g>
	<g id="Gruppe_3968" transform="translate(83.658 102.411)">
		<g id="Gruppe_3967" transform="translate(0 0)">
			<path id="Pfad_626" class="st0" d="M670.3,324V205h136v-34h-153c-9.4,0-17,7.6-17,17l0,0v153c0,9.4,7.6,17,17,17l0,0h255v-34
				H670.3L670.3,324z"/>
		</g>
	</g>
	<g id="Gruppe_3970" transform="translate(0 80.501)">
		<g id="Gruppe_3969" transform="translate(0 0)">
			<path id="Pfad_627" class="st0" d="M669,5.9H23c-9.4,0-17,7.6-17,17v544c0,9.4,7.6,17,17,17l0,0h136v-34H40v-510h612v510H329v34
				h340c9.4,0,17-7.6,17-17l0,0v-544C686,13.5,678.4,5.9,669,5.9L669,5.9z"/>
		</g>
	</g>
	<g id="Gruppe_3972" transform="translate(1.992 136.272)">
		<g id="Gruppe_3971">
			<rect id="Rechteck_1475" x="21" y="426.1" class="st0" width="102" height="34"/>
		</g>
	</g>
	<g id="Gruppe_3974" transform="translate(41.829 136.272)">
		<g id="Gruppe_3973">
			<rect id="Rechteck_1476" x="321.2" y="426.1" class="st0" width="289" height="34"/>
		</g>
	</g>
	<g id="Gruppe_3976" transform="translate(109.552 136.272)">
		<g id="Gruppe_3975">
			<rect id="Rechteck_1477" x="831.4" y="426.1" class="st0" width="68" height="34"/>
		</g>
	</g>
	<g id="Gruppe_3980" transform="translate(25.894 144.24)">
		<g id="Gruppe_3979">
			<rect id="Rechteck_1479" x="201.1" y="486.1" class="st0" width="34" height="34"/>
		</g>
	</g>
	<g id="Gruppe_3982" transform="translate(93.617 144.24)">
		<g id="Gruppe_3981">
			<rect id="Rechteck_1480" x="711.3" y="486.1" class="st0" width="34" height="34"/>
		</g>
	</g>
</g>
<path id="Pfad_661" class="st1" d="M167.8,276.8L107,185.6c-2.7-3.5-4.2-7.9-4.1-12.3c0-8.7,7-15.8,15.7-15.8c0.4,0,0.8,0,1.2,0
	h101.7C185.9,186.6,166,230.8,167.8,276.8z M121.7,172.9c-1.3-0.2-2.4,0.7-2.6,1.9c-0.1,0.7,0.1,1.4,0.6,1.9l38.7,59.5
	c2.9-23.4,12.7-45.4,28.1-63.3H121.7z M568.8,157.6c8.7-0.7,16.3,5.8,16.9,14.5c0,0.4,0,0.8,0,1.2c-0.1,5.1-2.1,9.9-5.6,13.5
	C441.8,366.6,389.8,397.1,317.7,396.3c-70.7-0.8-122.9-51.7-123.6-120.5c-2.6-66.1,48.8-121.7,114.9-124.3c2.5-0.1,5-0.1,7.5-0.1
	c31.1-0.8,61.1,11.4,82.9,33.6L356,250.5c-9.5-12-23.9-19.2-39.2-19.5c-23.4,0-42.4,19-42.4,42.4s19,42.4,42.4,42.4
	c0.3,0,0.6,0,0.8,0c22.8,0,37.8-14.1,59.9-48l71.8-110.2L568.8,157.6L568.8,157.6z M567,172.9H457.6l-68.2,104.7
	c-21.6,33.1-40.2,53.6-71.6,53.6c-31.9,0.4-58.1-25.1-58.5-57.1c-0.4-31.9,25.1-58.1,57.1-58.5c13.2,0,26.1,4.1,36.8,11.9l26.1-40.1
	c-17.8-13.8-39.8-21.1-62.4-20.6c-57.6-1.7-105.6,43.6-107.3,101.1c-0.1,2.6-0.1,5.2,0.1,7.8c0.8,60.3,46,104.4,108.3,105.2
	c64.1,0.8,112.6-24,251-204.5C570,174.7,569.3,172.9,567,172.9z"/>
</svg>
