<?xml version="1.0" encoding="utf-8"?>
<!-- Generator: Adobe Illustrator 25.2.3, SVG Export Plug-In . SVG Version: 6.00 Build 0)  -->
<svg version="1.1" id="Ebene_1" xmlns="http://www.w3.org/2000/svg" xmlns:xlink="http://www.w3.org/1999/xlink" x="0px" y="0px"
	 viewBox="0 0 1710 776" style="enable-background:new 0 0 1710 776;" xml:space="preserve">
<style type="text/css">
	.st0{fill:#333333;}
</style>
<g id="Gruppe_4027" transform="translate(0 0)">
	<path id="Pfad_649" class="st0" d="M1063.3,765.2c-63.4,0-126.1-14.6-187.8-28.9c-57-13.3-115.8-26.9-172.7-27.7
		c-33.6,1.2-65.6-14.2-85.7-41.1c-70.7-98.8-144.3-66.8-240.6-10.6l0,0c-44.5,26-169.8-6.9-194.4-13.7
		c-40.5-11.2-137.3-41.6-159.2-81.5c-31.3-56.3,2.7-112.3,13.8-128.2c10.2-15.1,26.8-24.7,45-26c28.5-0.4,55.7,11.7,74.5,33
		c7.8,8,26,26.9,32.3,26.9c-0.1,0,6.4-2.8,15.5-27.6c5.6-11.3,15.7-19.7,27.9-23c7.3-2.7,32.2-11.2,49-2.3
		c76.9,40.9,146.3,16.7,219.9-9.1c36.4-14.1,74.1-24.4,112.6-30.8c43.5-5.6,102.8-7.4,149.2,31.7c-5.3-12.1-11.4-23.8-18.3-35.1
		c-20.3-35-48.1-83-2.7-126.5c25.1-22.6,52.4-42.7,81.3-60c23.8-14.5,46.6-30.6,68.3-48.2c28.4-24.3,87.7-74.9,169.5-16.1
		c14.9,10.8,35.3,7.4,45.9,4.4c25.9-7,47.7-24.4,60.1-48.2c34.9-81.9,92.5-66.5,134.5-55.4l12.9,3.4c23,5.6,45.6,12.6,68.2,19.6
		c59.2,18.3,114.9,36,177.7,28.4c26.3-3,62.2,2.8,84.4,28c12.2,13.8,24.7,39,14.7,80c-3.8,12.3-3.4,25.6,1,37.7
		c9.4,12.6,17.7,26.1,24.7,40.1c5.8,11.8,10.4,24.1,13.7,36.8l0.6,7.4c1.9,9.1,2.5,18.4,1.6,27.6c-5.2,45.4-42.7,79-114.4,102.7
		c-33.6,186.1-118,264-298.2,276.7c-6.7,0.3-13.3,0.1-20-0.5c-5.3-0.8-10.6-0.8-15.9-0.2C1196.4,746.6,1130.5,766.1,1063.3,765.2z
		 M514.3,565c45.4,0,92,20.1,134.6,79.7c12.9,16.8,33.3,26.1,54.4,24.8c61.1,0.9,122.1,15.1,181.1,28.7
		c119.5,27.8,232.1,54.1,346.3-21.8c12.4-6.9,26.9-9.1,40.8-6.1c4.9,0.3,9.7,0.6,13.8,0.5c162.1-11.4,232-75.6,262.3-243.8
		l-11.9-18.7l21.9-7.1l27.6-16.3l0.8,6.9c47.8-17.6,72.6-39.3,75.8-66c0.3-5.8-0.2-11.7-1.5-17.3l-0.5-6.2
		c-2.4-8.5-5.6-16.8-9.5-24.7c-6.3-12.8-13.7-24.9-22.1-36.4c-17.1-23.8-9.1-62.2-7.3-69.6c4.9-19.9,2.8-35.1-6-45.1
		c-11.6-13-34-16.9-50.7-15c-70.7,8-133.3-11.2-193.7-29.9c-21.9-6.8-43.6-13.6-65.9-19l-13.6-3.5c-41.8-11.1-66.9-18-88.7,32.9
		c-16.9,34.8-48,60.6-85.4,70.6c-26.6,8.9-55.8,5.1-79.2-10.3c-47.9-34.4-79.7-21.6-121.5,14.1c-23,18.7-47.2,35.9-72.5,51.4
		c-26.8,15.9-52.1,34.5-75.3,55.3c-21.2,20.3-13.8,38.6,9.4,78.8c13.2,22.9,26.9,46.5,28.7,72.8c-0.1,8.6-4.2,16.7-11.1,21.8
		c-2.5,2.3-5.9,5.7-10.5,10.6l-16,17.5L755,455.1c-27.7-37.7-69.8-50.7-136.6-41.9c-35.8,6.1-70.9,15.8-104.8,29
		c-78.3,27.3-159.2,55.5-250.9,6.7c-8.6,1-16.9,3.8-24.4,8c-5,16.2-17.6,43.5-41.8,48.6c-26.5,5.1-47.7-16.6-68.4-38.1
		c-11.1-12.5-26.7-20.1-43.4-21.2c-6.5,0.5-12.5,4-16,9.5c-7.8,11.2-31.9,50.4-11.6,87c8.1,14.8,57.2,41.1,135.4,62.6
		c82.6,22.8,148.3,26.9,164.3,17.6C400.4,597.6,456.4,565,514.3,565z"/>
</g>
</svg>
